<svg xmlns="http://www.w3.org/2000/svg" width="314" height="116" viewBox="81.96 166.15999999999997 314.08000000000004 116.48000000000002">
  <title>SkyFy &#8212; S Inside Smooth Cloud (fiery-smooth)</title>
  <defs>
    
    <linearGradient id="Sgradient" x1="0" y1="0" x2="0" y2="1">
      <stop offset="0%" stop-color="#ff3300"/>
      <stop offset="50%" stop-color="#ff6600"/>
      <stop offset="100%" stop-color="#ffaa33"/>
    </linearGradient>
    
    
    <!-- Gradient for cloud (unchanged) -->
    <linearGradient id="cloudGrad" x1="0" y1="0" x2="0" y2="1">
      <stop offset="0%" stop-color="#ffffff" stop-opacity="0.95"/>
      <stop offset="100%" stop-color="#00d9ff" stop-opacity="0.55"/>
    </linearGradient>

  </defs>
  
  <!-- Smooth Cloud: single silhouette -->
  <g transform="translate(240,245)">
    <path d="M -118,28              C -150,28  -152,-6  -118,-6                C -104,-42  -58,-56  -22,-40                C  -6,-70    44,-70    70,-44                C 106,-60   134,-32   120,-10                C 150,-10   150,28    118,28                L -118,28 Z" fill="url(#cloudGrad)"/>
  </g>

  
  <!-- S inside -->
  <g transform="translate(240,250) scale(0.80) translate(0,-32)">
    <path d="M80 -40              Q 40 -70 0 -40              Q -30 -10 20 0              Q 70 10 40 40              Q 0 70 -40 40" fill="none" stroke="url(#Sgradient)" stroke-width="28" stroke-linecap="round" stroke-linejoin="round"/>
  </g>

</svg>
